<svg id="Capa_1" data-name="Capa 1" xmlns="http://www.w3.org/2000/svg" viewBox="0 0 397.2 397.53"><title>github</title><path d="M236.42,294.46c10.05-2.2,19.19-3.64,28-6.21,38-11.06,58.33-38.66,61.25-81.68,1.62-24-1.84-46.45-17.76-65.53-1.08-1.29-1.36-4-.89-5.79,4.05-15,3.1-29.67-1.11-44.47-1.61-5.68-4.4-7.23-9.82-6.44-15,2.18-28.14,8.88-40.56,17.14A16,16,0,0,1,241.63,104a177.9,177.9,0,0,0-84.92,0,15.15,15.15,0,0,1-13.26-2.31c-12.4-8.28-25.51-15-40.5-17.31-5.8-.89-8.73.78-10.36,6.69-4,14.57-4.83,29.05-1.12,43.81a9.69,9.69,0,0,1-1.41,7C67.6,173.5,66.71,224.05,88.28,256.39c14.43,21.64,36,30.82,60.08,35.43,4,.76,8,1.32,12,2,.17,0,.31.31-.19-.22-3.18,8.88-6.07,17.4-9.36,25.77-.58,1.49-2.62,2.69-4.24,3.4-20.79,9.1-40.78,2.62-53.18-17.33-6.63-10.65-15-18.79-27.53-21.43-.7-.15-1.47-.64-2.07-.47-3.49,1-6.94,2.11-10.41,3.19,1.83,2.63,3.09,6.18,5.57,7.74,11.07,7,18.19,17,22.86,29,6.92,17.76,20.44,26.39,38.28,28.24,9.36,1,18.89.17,29.45.17,0,12,.46,25.25-.19,38.42-.31,6.22-7.08,9.58-14,6.47-15.17-6.87-30.87-13.22-44.69-22.38-66.27-43.9-101.48-123-87.15-204.8C18.44,84.25,79.88,20.74,160.36,4.35c125.23-25.51,242.54,75.33,237,205.39-3.77,88.61-48,150-127.92,184.89A52.45,52.45,0,0,1,262.7,397c-8.74,2.44-14.07-1.47-14.11-10.69q-.14-25.85.17-51.68C249,320.18,246.52,306.62,236.42,294.46Z" transform="translate(-0.35 -0.38)"/></svg>