<?xml version="1.0" encoding="utf-8"?>
<!-- Generator: Adobe Illustrator 24.0.2, SVG Export Plug-In . SVG Version: 6.00 Build 0)  -->
<svg version="1.1" id="Capa_1" xmlns="http://www.w3.org/2000/svg" xmlns:xlink="http://www.w3.org/1999/xlink" x="0px" y="0px"
	 viewBox="0 0 156.7 176.3" style="enable-background:new 0 0 156.7 176.3;" xml:space="preserve">
<style type="text/css">
	.st0{fill:url(#SVGID_1_);}
	.st1{opacity:0.46;fill:url(#SVGID_2_);}
	.st2{opacity:0.46;fill:url(#SVGID_3_);}
	.st3{fill:url(#SVGID_4_);}
	.st4{fill:url(#SVGID_5_);}
	.st5{fill:url(#SVGID_6_);}
	.st6{fill:url(#SVGID_7_);}
	.st7{fill:url(#SVGID_8_);}
	.st8{fill:url(#SVGID_9_);}
	.st9{fill:url(#SVGID_10_);}
	.st10{fill:url(#SVGID_11_);}
	.st11{fill:url(#SVGID_12_);}
	.st12{fill:url(#SVGID_13_);}
	.st13{fill:url(#SVGID_14_);}
	.st14{fill:url(#SVGID_15_);}
	.st15{fill:url(#SVGID_16_);}
	.st16{fill:url(#SVGID_17_);}
	.st17{fill:url(#SVGID_18_);}
	.st18{fill:url(#SVGID_19_);}
	.st19{fill:url(#SVGID_20_);}
	.st20{fill:none;stroke:#FFFFFF;stroke-width:0.138;stroke-miterlimit:10;}
	.st21{fill:#FFFFFF;}
	.st22{fill:url(#SVGID_21_);}
	.st23{fill:url(#SVGID_22_);}
	.st24{fill:url(#SVGID_23_);}
	.st25{fill:url(#SVGID_24_);}
	.st26{fill:url(#SVGID_25_);}
	.st27{fill:url(#SVGID_26_);}
	.st28{fill:url(#SVGID_27_);}
	.st29{fill:url(#SVGID_28_);}
	.st30{fill:url(#SVGID_29_);}
	.st31{fill:url(#SVGID_30_);}
	.st32{fill:url(#SVGID_31_);}
	.st33{fill:url(#SVGID_32_);}
	.st34{fill:url(#SVGID_33_);}
	.st35{fill:url(#SVGID_34_);}
	.st36{fill:url(#SVGID_35_);}
	.st37{fill:url(#SVGID_36_);}
	.st38{fill:url(#SVGID_37_);}
	.st39{fill:url(#SVGID_38_);}
</style>
<g>
	<linearGradient id="SVGID_1_" gradientUnits="userSpaceOnUse" x1="2.277" y1="118.5765" x2="155.1242" y2="118.5765">
		<stop  offset="0" style="stop-color:#6C6777"/>
		<stop  offset="1" style="stop-color:#2C2A33"/>
	</linearGradient>
	<polygon class="st0" points="71.1,75.4 2.3,114.4 87.8,161.7 155.1,123.2 	"/>
	<linearGradient id="SVGID_2_" gradientUnits="userSpaceOnUse" x1="2.277" y1="131.0093" x2="155.1242" y2="131.0093">
		<stop  offset="0" style="stop-color:#6C6777"/>
		<stop  offset="1" style="stop-color:#2C2A33"/>
	</linearGradient>
	<polygon class="st1" points="71.1,87.9 2.3,126.9 87.8,174.2 155.1,135.7 	"/>
	<linearGradient id="SVGID_3_" gradientUnits="userSpaceOnUse" x1="2.277" y1="124.6494" x2="155.1242" y2="124.6494">
		<stop  offset="0" style="stop-color:#6C6777"/>
		<stop  offset="1" style="stop-color:#2C2A33"/>
	</linearGradient>
	<polygon class="st2" points="71.1,81.5 2.3,120.5 87.8,167.8 155.1,129.3 	"/>
	
		<linearGradient id="SVGID_4_" gradientUnits="userSpaceOnUse" x1="11.8654" y1="121.4722" x2="126.8977" y2="121.4722" gradientTransform="matrix(0.9053 0.5227 0 1 14.4424 -80.0413)">
		<stop  offset="0" style="stop-color:#2C2A33"/>
		<stop  offset="1" style="stop-color:#6C6777"/>
	</linearGradient>
	<polygon class="st3" points="129.3,153 25.2,92.9 25.2,2.4 129.3,62.5 	"/>
	
		<linearGradient id="SVGID_5_" gradientUnits="userSpaceOnUse" x1="15.858" y1="121.666" x2="123.5719" y2="121.666" gradientTransform="matrix(0.9053 0.5227 0 1 14.4424 -80.0413)">
		<stop  offset="0" style="stop-color:#6C6777"/>
		<stop  offset="1" style="stop-color:#2C2A33"/>
	</linearGradient>
	<polygon class="st4" points="28.8,91.4 28.8,8.5 126.3,64.7 126.3,147.6 	"/>
	<g>
		<linearGradient id="SVGID_6_" gradientUnits="userSpaceOnUse" x1="42.6755" y1="33.1933" x2="49.2068" y2="33.1933">
			<stop  offset="0" style="stop-color:#F9BD86"/>
			<stop  offset="0.1993" style="stop-color:#F6AB88"/>
			<stop  offset="0.6174" style="stop-color:#EE7784"/>
			<stop  offset="1" style="stop-color:#E83376"/>
		</linearGradient>
		<path class="st5" d="M49.2,35.3l-6.5,2.6v-9.5c2.4,1.5,4.6,3.8,6.2,6.3C49,34.9,49.1,35.1,49.2,35.3z"/>
		<linearGradient id="SVGID_7_" gradientUnits="userSpaceOnUse" x1="32.7944" y1="38.608" x2="50.6767" y2="38.608">
			<stop  offset="0" style="stop-color:#E9454D"/>
			<stop  offset="0.1912" style="stop-color:#E03E58"/>
			<stop  offset="0.5955" style="stop-color:#C92D6E"/>
			<stop  offset="1" style="stop-color:#B0127E"/>
		</linearGradient>
		<path class="st6" d="M50.7,43.9c0,3.4-1.8,5.2-4.4,5.2c-1.3,0-2.9-0.5-4.5-1.4c-4.9-2.9-8.9-9.3-8.9-14.4c0-3.4,1.8-5.2,4.4-5.2
			c1.1,0,2.3,0.3,3.5,0.9v11.7l8.2-3.2C50,39.6,50.7,41.9,50.7,43.9z"/>
	</g>
	<g>
		<linearGradient id="SVGID_8_" gradientUnits="userSpaceOnUse" x1="60.5935" y1="48.9152" x2="77.7877" y2="48.9152">
			<stop  offset="0" style="stop-color:#F9BD86"/>
			<stop  offset="0.1993" style="stop-color:#F6AB88"/>
			<stop  offset="0.6174" style="stop-color:#EE7784"/>
			<stop  offset="1" style="stop-color:#E83376"/>
		</linearGradient>
		<path class="st7" d="M77.8,52.4l-9-2l-5.3,6.1c-1.8-2.9-2.9-6.1-2.9-9c0-3.9,2-6.2,4.9-6.2c1.3,0,2.7,0.4,4.3,1.3
			c2.5,1.5,4.8,3.9,6.5,6.7C76.9,50.3,77.4,51.4,77.8,52.4z"/>
		<linearGradient id="SVGID_9_" gradientUnits="userSpaceOnUse" x1="63.8885" y1="58.8303" x2="79.4314" y2="58.8303">
			<stop  offset="0" style="stop-color:#69C8F3"/>
			<stop  offset="0.6756" style="stop-color:#00A6CE"/>
			<stop  offset="1" style="stop-color:#009AC0"/>
		</linearGradient>
		<path class="st8" d="M79.4,59.6c0,3.9-2,6.2-4.9,6.2c-1.3,0-2.7-0.4-4.2-1.3c-2.5-1.4-4.7-3.8-6.3-6.5l5.3-6.1l9,2
			C79,55.8,79.4,57.8,79.4,59.6z"/>
	</g>
	
		<linearGradient id="SVGID_10_" gradientUnits="userSpaceOnUse" x1="12.4371" y1="125.7532" x2="26.1729" y2="125.7532" gradientTransform="matrix(0.8513 0.4911 0 1 24.9566 -82.9246)">
		<stop  offset="0" style="stop-color:#6C6777"/>
		<stop  offset="1" style="stop-color:#C3C0DE"/>
	</linearGradient>
	<polygon class="st9" points="47.2,56.5 35.5,49.8 35.5,48.1 47.2,54.9 	"/>
	
		<linearGradient id="SVGID_11_" gradientUnits="userSpaceOnUse" x1="45.0925" y1="125.6613" x2="58.8285" y2="125.6613" gradientTransform="matrix(0.8513 0.4911 0 1 24.9566 -82.9246)">
		<stop  offset="0" style="stop-color:#6C6777"/>
		<stop  offset="1" style="stop-color:#C3C0DE"/>
	</linearGradient>
	<polygon class="st10" points="75,72.4 63.3,65.7 63.3,64.1 75,70.8 	"/>
	
		<linearGradient id="SVGID_12_" gradientUnits="userSpaceOnUse" x1="68.6982" y1="102.2679" x2="113.4414" y2="102.2679" gradientTransform="matrix(0.8513 0.4911 0 1 24.9566 -82.9246)">
		<stop  offset="0" style="stop-color:#6C6777"/>
		<stop  offset="1" style="stop-color:#C3C0DE"/>
	</linearGradient>
	<polygon class="st11" points="121.5,77.7 83.4,55.7 83.4,50.4 121.5,72.4 	"/>
	
		<linearGradient id="SVGID_13_" gradientUnits="userSpaceOnUse" x1="68.9143" y1="108.4183" x2="91.286" y2="108.4183" gradientTransform="matrix(0.8513 0.4911 0 1 24.9566 -82.9246)">
		<stop  offset="0" style="stop-color:#6C6777"/>
		<stop  offset="1" style="stop-color:#C3C0DE"/>
	</linearGradient>
	<polygon class="st12" points="102.7,71.6 83.6,60.7 83.6,58 102.7,69 	"/>
	
		<linearGradient id="SVGID_14_" gradientUnits="userSpaceOnUse" x1="68.9143" y1="114.7714" x2="110.1189" y2="114.7714" gradientTransform="matrix(0.8513 0.4911 0 1 24.9566 -82.9246)">
		<stop  offset="0" style="stop-color:#6C6777"/>
		<stop  offset="1" style="stop-color:#C3C0DE"/>
	</linearGradient>
	<polygon class="st13" points="118.7,86.4 83.6,66.4 83.6,65.2 118.7,85.2 	"/>
	
		<linearGradient id="SVGID_15_" gradientUnits="userSpaceOnUse" x1="68.9143" y1="117.5779" x2="110.1189" y2="117.5779" gradientTransform="matrix(0.8513 0.4911 0 1 24.9566 -82.9246)">
		<stop  offset="0" style="stop-color:#6C6777"/>
		<stop  offset="1" style="stop-color:#C3C0DE"/>
	</linearGradient>
	<polygon class="st14" points="118.7,89.3 83.6,69.2 83.6,68 118.7,88 	"/>
	
		<linearGradient id="SVGID_16_" gradientUnits="userSpaceOnUse" x1="68.9143" y1="120.3844" x2="110.1189" y2="120.3844" gradientTransform="matrix(0.8513 0.4911 0 1 24.9566 -82.9246)">
		<stop  offset="0" style="stop-color:#6C6777"/>
		<stop  offset="1" style="stop-color:#C3C0DE"/>
	</linearGradient>
	<polygon class="st15" points="118.7,92.1 83.6,72.1 83.6,70.8 118.7,90.8 	"/>
	
		<linearGradient id="SVGID_17_" gradientUnits="userSpaceOnUse" x1="68.9143" y1="123.1909" x2="110.1189" y2="123.1909" gradientTransform="matrix(0.8513 0.4911 0 1 24.9566 -82.9246)">
		<stop  offset="0" style="stop-color:#6C6777"/>
		<stop  offset="1" style="stop-color:#C3C0DE"/>
	</linearGradient>
	<polygon class="st16" points="118.7,94.9 83.6,74.9 83.6,73.6 118.7,93.6 	"/>
	
		<linearGradient id="SVGID_18_" gradientUnits="userSpaceOnUse" x1="68.9143" y1="125.9974" x2="110.1189" y2="125.9974" gradientTransform="matrix(0.8513 0.4911 0 1 24.9566 -82.9246)">
		<stop  offset="0" style="stop-color:#6C6777"/>
		<stop  offset="1" style="stop-color:#C3C0DE"/>
	</linearGradient>
	<polygon class="st17" points="118.7,97.7 83.6,77.7 83.6,76.4 118.7,96.4 	"/>
	
		<linearGradient id="SVGID_19_" gradientUnits="userSpaceOnUse" x1="68.9143" y1="128.8499" x2="100.2816" y2="128.8499" gradientTransform="matrix(0.8513 0.4911 0 1 24.9566 -82.9246)">
		<stop  offset="0" style="stop-color:#6C6777"/>
		<stop  offset="1" style="stop-color:#C3C0DE"/>
	</linearGradient>
	<polygon class="st18" points="110.3,95.7 83.6,80.5 83.6,79.2 110.3,94.5 	"/>
	<linearGradient id="SVGID_20_" gradientUnits="userSpaceOnUse" x1="30.9869" y1="96.4204" x2="119.2887" y2="96.4204">
		<stop  offset="0" style="stop-color:#69C8F3"/>
		<stop  offset="0.6756" style="stop-color:#00A6CE"/>
		<stop  offset="1" style="stop-color:#009AC0"/>
	</linearGradient>
	<path class="st19" d="M119.3,110c-7.7,9.4-11.5,10.7-13.4,9.9c-2.3-0.9-2.6-5-3-9.4c-0.4-5.1-0.9-10.4-4.4-12.1
		c-3.9-1.8-9,1.9-13.9,5.5c-4.1,3-8.4,6.1-10.7,4.6c-1.5-1-1.6-3.5-1.6-6.4c-0.1-3.8-0.1-8-3.4-10.7C67,90,65.4,90,63.7,89.9
		c-1.5,0-3.1-0.1-5.1-1.2c-4-2.3-5.3-6.5-6.4-10.3c-0.9-3.1-1.7-5.8-4-6.6c-3.7-1.3-9.3,3.3-17.1,13.9v1.9
		C40.7,74,45.5,72,47.7,72.8c1.8,0.6,2.5,3.1,3.3,5.9c1.1,3.7,2.5,8.4,6.9,10.9c2.2,1.3,4,1.3,5.6,1.4c1.6,0,3,0.1,4.5,1.3
		c2.9,2.4,3,6.4,3,9.9c0,3.1,0.1,6,2.1,7.3c2.9,1.8,7.3-1.3,11.9-4.7c4.7-3.4,9.5-6.9,12.8-5.4c3,1.4,3.4,6.4,3.8,11.2
		c0.4,4.7,0.8,9.2,3.7,10.4c0.4,0.2,0.9,0.3,1.4,0.3c3,0,7-3.1,12.4-9.5V110z"/>
	<g>
		<line class="st20" x1="59.4" y1="89.8" x2="59.4" y2="77"/>
		<g>
			
				<image style="overflow:visible;" width="51" height="51" xlink:href="90863318.png"  transform="matrix(0.24 0 0 0.24 53.3649 70.2802)">
			</image>
			<g>
				<path class="st21" d="M60.4,76.4c0,0.5-0.4,0.9-0.9,0.9c-0.5,0-0.9-0.4-0.9-0.9s0.4-0.9,0.9-0.9C60,75.5,60.4,75.9,60.4,76.4z"
					/>
			</g>
		</g>
	</g>
	<g>
		<line class="st20" x1="114.8" y1="116.2" x2="114.8" y2="103.4"/>
		<g>
			
				<image style="overflow:visible;" width="51" height="51" xlink:href="90863319.png"  transform="matrix(0.24 0 0 0.24 108.8049 96.6802)">
			</image>
			<g>
				<path class="st21" d="M115.7,102.8c0,0.5-0.4,0.9-0.9,0.9c-0.5,0-0.9-0.4-0.9-0.9c0-0.5,0.4-0.9,0.9-0.9
					C115.3,101.8,115.7,102.3,115.7,102.8z"/>
			</g>
		</g>
	</g>
	<g>
		<line class="st20" x1="35.5" y1="80.7" x2="35.5" y2="67.9"/>
		<g>
			
				<image style="overflow:visible;" width="50" height="51" xlink:href="9086331F.png"  transform="matrix(0.24 0 0 0.24 29.6049 61.1602)">
			</image>
			<g>
				<circle class="st21" cx="35.5" cy="67.3" r="0.9"/>
			</g>
		</g>
	</g>
	<g>
		<line class="st20" x1="85.2" y1="104" x2="85.2" y2="91.1"/>
		<g>
			
				<image style="overflow:visible;" width="50" height="51" xlink:href="9086331A.png"  transform="matrix(0.24 0 0 0.24 79.2849 84.4402)">
			</image>
			<g>
				<circle class="st21" cx="85.2" cy="90.5" r="0.9"/>
			</g>
		</g>
	</g>
	<g>
		<line class="st20" x1="52.3" y1="82" x2="52.3" y2="94.9"/>
		<g>
			
				<image style="overflow:visible;" width="51" height="51" xlink:href="9086331B.png"  transform="matrix(0.24 0 0 0.24 46.1649 89.4802)">
			</image>
			<g>
				<circle class="st21" cx="52.3" cy="95.5" r="0.9"/>
			</g>
		</g>
	</g>
	<g>
		<line class="st20" x1="98.2" y1="98.7" x2="98.2" y2="111.5"/>
		<g>
			
				<image style="overflow:visible;" width="50" height="51" xlink:href="90863316.png"  transform="matrix(0.24 0 0 0.24 92.2449 106.0402)">
			</image>
			<g>
				<circle class="st21" cx="98.2" cy="112.1" r="0.9"/>
			</g>
		</g>
	</g>
	<g>
		<linearGradient id="SVGID_21_" gradientUnits="userSpaceOnUse" x1="18.4675" y1="79.9905" x2="18.4675" y2="106.5519">
			<stop  offset="0" style="stop-color:#69C8F3"/>
			<stop  offset="0.6756" style="stop-color:#00A6CE"/>
			<stop  offset="1" style="stop-color:#009AC0"/>
		</linearGradient>
		<polygon class="st22" points="20.7,113.6 16.2,116.2 16.2,82.7 20.7,80.2 		"/>
		<linearGradient id="SVGID_22_" gradientUnits="userSpaceOnUse" x1="16.575" y1="94.8327" x2="21.7286" y2="88.1787">
			<stop  offset="0" style="stop-color:#69C8F3"/>
			<stop  offset="0.6756" style="stop-color:#00A6CE"/>
			<stop  offset="1" style="stop-color:#009AC0"/>
		</linearGradient>
		<polygon class="st23" points="11.7,113.6 16.2,116.2 16.2,82.7 11.7,80.2 		"/>
		<linearGradient id="SVGID_23_" gradientUnits="userSpaceOnUse" x1="11.7307" y1="80.1123" x2="20.7131" y2="80.1123">
			<stop  offset="0" style="stop-color:#69C8F3"/>
			<stop  offset="0.6756" style="stop-color:#00A6CE"/>
			<stop  offset="1" style="stop-color:#009AC0"/>
		</linearGradient>
		<polygon class="st24" points="11.7,80.2 16.2,77.5 20.7,80.2 16.2,82.7 		"/>
	</g>
	<g>
		<linearGradient id="SVGID_24_" gradientUnits="userSpaceOnUse" x1="31.9911" y1="86.007" x2="31.9911" y2="102.5885">
			<stop  offset="0" style="stop-color:#E9454D"/>
			<stop  offset="0.1912" style="stop-color:#E03E58"/>
			<stop  offset="0.5955" style="stop-color:#C92D6E"/>
			<stop  offset="1" style="stop-color:#B0127E"/>
		</linearGradient>
		<polygon class="st25" points="34.2,106.1 29.7,108.6 29.7,88.7 34.2,86.1 		"/>
		<linearGradient id="SVGID_25_" gradientUnits="userSpaceOnUse" x1="29.0776" y1="95.33" x2="32.2065" y2="91.2901">
			<stop  offset="0" style="stop-color:#E9454D"/>
			<stop  offset="0.1912" style="stop-color:#E03E58"/>
			<stop  offset="0.5955" style="stop-color:#C92D6E"/>
			<stop  offset="1" style="stop-color:#B0127E"/>
		</linearGradient>
		<polygon class="st26" points="25.3,106.1 29.7,108.6 29.7,88.7 25.3,86.1 		"/>
		<linearGradient id="SVGID_26_" gradientUnits="userSpaceOnUse" x1="25.2542" y1="86.043" x2="34.2367" y2="86.043">
			<stop  offset="0" style="stop-color:#E9454D"/>
			<stop  offset="0.1912" style="stop-color:#E03E58"/>
			<stop  offset="0.5955" style="stop-color:#C92D6E"/>
			<stop  offset="1" style="stop-color:#B0127E"/>
		</linearGradient>
		<polygon class="st27" points="25.3,86.1 29.8,83.4 34.2,86.1 29.7,88.7 		"/>
	</g>
	<g>
		<linearGradient id="SVGID_27_" gradientUnits="userSpaceOnUse" x1="90.1661" y1="134.3409" x2="90.1661" y2="150.9224">
			<stop  offset="0" style="stop-color:#E9454D"/>
			<stop  offset="0.1912" style="stop-color:#E03E58"/>
			<stop  offset="0.5955" style="stop-color:#C92D6E"/>
			<stop  offset="1" style="stop-color:#B0127E"/>
		</linearGradient>
		<polygon class="st28" points="92.4,154.4 87.9,156.9 87.9,137 92.4,134.5 		"/>
		<linearGradient id="SVGID_28_" gradientUnits="userSpaceOnUse" x1="87.2526" y1="143.664" x2="90.3815" y2="139.6241">
			<stop  offset="0" style="stop-color:#E9454D"/>
			<stop  offset="0.1912" style="stop-color:#E03E58"/>
			<stop  offset="0.5955" style="stop-color:#C92D6E"/>
			<stop  offset="1" style="stop-color:#B0127E"/>
		</linearGradient>
		<polygon class="st29" points="83.4,154.4 87.9,156.9 87.9,137 83.4,134.5 		"/>
		<linearGradient id="SVGID_29_" gradientUnits="userSpaceOnUse" x1="83.4293" y1="134.377" x2="92.4118" y2="134.377">
			<stop  offset="0" style="stop-color:#E9454D"/>
			<stop  offset="0.1912" style="stop-color:#E03E58"/>
			<stop  offset="0.5955" style="stop-color:#C92D6E"/>
			<stop  offset="1" style="stop-color:#B0127E"/>
		</linearGradient>
		<polygon class="st30" points="83.4,134.5 87.9,131.7 92.4,134.5 87.9,137 		"/>
	</g>
	<g>
		<linearGradient id="SVGID_30_" gradientUnits="userSpaceOnUse" x1="61.0781" y1="120.6872" x2="61.0781" y2="126.5427">
			<stop  offset="0" style="stop-color:#E9454D"/>
			<stop  offset="0.1912" style="stop-color:#E03E58"/>
			<stop  offset="0.5955" style="stop-color:#C92D6E"/>
			<stop  offset="1" style="stop-color:#B0127E"/>
		</linearGradient>
		<polygon class="st31" points="63.3,126.1 58.8,128.7 58.8,123.3 63.3,120.7 		"/>
		<linearGradient id="SVGID_31_" gradientUnits="userSpaceOnUse" x1="57.0673" y1="124.0786" x2="58.0201" y2="122.8483">
			<stop  offset="0" style="stop-color:#E9454D"/>
			<stop  offset="0.1912" style="stop-color:#E03E58"/>
			<stop  offset="0.5955" style="stop-color:#C92D6E"/>
			<stop  offset="1" style="stop-color:#B0127E"/>
		</linearGradient>
		<polygon class="st32" points="54.3,126.1 58.8,128.7 58.8,123.3 54.3,120.7 		"/>
		<linearGradient id="SVGID_32_" gradientUnits="userSpaceOnUse" x1="54.3413" y1="120.6312" x2="63.3237" y2="120.6312">
			<stop  offset="0" style="stop-color:#E9454D"/>
			<stop  offset="0.1912" style="stop-color:#E03E58"/>
			<stop  offset="0.5955" style="stop-color:#C92D6E"/>
			<stop  offset="1" style="stop-color:#B0127E"/>
		</linearGradient>
		<polygon class="st33" points="54.3,120.7 58.8,118 63.3,120.7 58.8,123.3 		"/>
	</g>
	<g>
		<linearGradient id="SVGID_33_" gradientUnits="userSpaceOnUse" x1="48.7031" y1="82.534" x2="48.7031" y2="116.2261">
			<stop  offset="0" style="stop-color:#EE7340"/>
			<stop  offset="0.9667" style="stop-color:#E63033"/>
		</linearGradient>
		<polygon class="st34" points="50.9,125.9 46.5,128.4 46.5,85.3 50.9,82.8 		"/>
		<linearGradient id="SVGID_34_" gradientUnits="userSpaceOnUse" x1="47.54" y1="101.3197" x2="54.1403" y2="92.7978">
			<stop  offset="0" style="stop-color:#EE7340"/>
			<stop  offset="0.9667" style="stop-color:#E63033"/>
		</linearGradient>
		<polygon class="st35" points="42,125.9 46.5,128.4 46.5,85.3 42,82.8 		"/>
		<linearGradient id="SVGID_35_" gradientUnits="userSpaceOnUse" x1="41.9663" y1="82.7171" x2="50.9487" y2="82.7171">
			<stop  offset="0" style="stop-color:#EE7340"/>
			<stop  offset="0.9667" style="stop-color:#E63033"/>
		</linearGradient>
		<polygon class="st36" points="42,82.8 46.5,80.1 50.9,82.8 46.5,85.3 		"/>
	</g>
	<g>
		<linearGradient id="SVGID_36_" gradientUnits="userSpaceOnUse" x1="103.5521" y1="126.3763" x2="103.5521" y2="142.9578">
			<stop  offset="0" style="stop-color:#EE7340"/>
			<stop  offset="0.9667" style="stop-color:#601D0C"/>
		</linearGradient>
		<polygon class="st37" points="105.8,146.4 101.3,149 101.3,129 105.8,126.5 		"/>
		<linearGradient id="SVGID_37_" gradientUnits="userSpaceOnUse" x1="100.6386" y1="135.6994" x2="103.7675" y2="131.6595">
			<stop  offset="0" style="stop-color:#EE7340"/>
			<stop  offset="0.9667" style="stop-color:#601D0C"/>
		</linearGradient>
		<polygon class="st38" points="96.8,146.4 101.3,149 101.3,129 96.8,126.5 		"/>
		<linearGradient id="SVGID_38_" gradientUnits="userSpaceOnUse" x1="96.8153" y1="126.4124" x2="105.7977" y2="126.4124">
			<stop  offset="0" style="stop-color:#EE7340"/>
			<stop  offset="0.9667" style="stop-color:#601D0C"/>
		</linearGradient>
		<polygon class="st39" points="96.8,126.5 101.3,123.8 105.8,126.5 101.3,129 		"/>
	</g>
</g>
</svg>
