<svg id="Capa_1" data-name="Capa 1" xmlns="http://www.w3.org/2000/svg" viewBox="0 0 397.35 397.35"><defs><style>.cls-1{fill:#111114;}.cls-2{fill:#fff;}</style></defs><title>linkedin</title><path class="cls-1" d="M397.62,198.94c0,109.72-88.95,198.67-198.68,198.67h0C89.21,397.61.26,308.66.26,198.94h0C.26,89.21,89.21.26,198.94.26h0c109.73,0,198.68,88.95,198.68,198.68Z" transform="translate(-0.26 -0.26)"/><circle class="cls-2" cx="128.31" cy="119.97" r="25.59"/><rect class="cls-2" x="106.98" y="162.62" width="42.65" height="127.94" rx="1.91"/><path class="cls-2" d="M294.9,209.79v72.5a8.55,8.55,0,0,1-8.53,8.53H260.78a8.55,8.55,0,0,1-8.53-8.53v-59.7a21.33,21.33,0,1,0-42.65,0v59.7a8.54,8.54,0,0,1-8.53,8.53H175.48a8.54,8.54,0,0,1-8.52-8.53V171.41a8.55,8.55,0,0,1,8.52-8.53h25.59a8.55,8.55,0,0,1,8.53,8.53v5.46c8.53-11.05,22.65-18.26,38.39-18.26C271.53,158.61,294.9,175.67,294.9,209.79Z" transform="translate(-0.26 -0.26)"/></svg>