<svg id="Capa_1" data-name="Capa 1" xmlns="http://www.w3.org/2000/svg" xmlns:xlink="http://www.w3.org/1999/xlink" viewBox="0 0 155.29 189.47"><defs><style>.cls-1{fill:#43407f;}.cls-2{fill:#6876a1;}.cls-3{fill:#f2f0f3;}.cls-24,.cls-4{opacity:0.5;}.cls-24,.cls-5{fill:#bf8861;}.cls-6{fill:url(#Degradado_sin_nombre_10);}.cls-7{fill:#ca3a5c;}.cls-8{fill:#b09dc6;}.cls-9{fill:url(#Degradado_sin_nombre_10-2);}.cls-10{fill:url(#Degradado_sin_nombre_10-3);}.cls-11{fill:url(#Degradado_sin_nombre_12);}.cls-12{fill:#f4a2a2;}.cls-13{fill:url(#Degradado_sin_nombre_43);}.cls-14{fill:#de6b37;}.cls-15{fill:url(#Degradado_sin_nombre_12-2);}.cls-16{fill:#0a8e9e;}.cls-17{fill:url(#Degradado_sin_nombre_43-2);}.cls-18{fill:url(#Degradado_sin_nombre_12-3);}.cls-19{fill:url(#Degradado_sin_nombre_10-4);}.cls-20{fill:#783e80;}.cls-21{fill:url(#Degradado_sin_nombre_43-3);}.cls-22{fill:#d16971;}.cls-23{fill:#272150;}.cls-25{fill:#eacbb9;}.cls-26{fill:url(#Degradado_sin_nombre_12-4);}.cls-27{fill:url(#Degradado_sin_nombre_43-4);}.cls-28{fill:url(#Degradado_sin_nombre_10-5);}.cls-29{fill:url(#Degradado_sin_nombre_10-6);}.cls-30{fill:url(#Degradado_sin_nombre_10-7);}.cls-31{fill:url(#Degradado_sin_nombre_10-8);}.cls-32{fill:url(#Degradado_sin_nombre_10-9);}.cls-33{fill:url(#Degradado_sin_nombre_10-10);}.cls-34{fill:url(#Degradado_sin_nombre_10-11);}.cls-35{fill:url(#Degradado_sin_nombre_43-5);}.cls-36{fill:url(#Degradado_sin_nombre_43-6);}.cls-37{fill:url(#Degradado_sin_nombre_43-7);}.cls-38{fill:url(#Degradado_sin_nombre_43-8);}.cls-39{fill:url(#Degradado_sin_nombre_43-9);}.cls-40{fill:url(#Degradado_sin_nombre_43-10);}.cls-41{fill:url(#Degradado_sin_nombre_43-11);}.cls-42{fill:url(#Degradado_sin_nombre_43-12);}.cls-43{fill:url(#Degradado_sin_nombre_43-13);}.cls-44{fill:url(#Degradado_sin_nombre_43-14);}.cls-45{fill:url(#Degradado_sin_nombre_43-15);}.cls-46{fill:url(#Degradado_sin_nombre_43-16);}.cls-47{fill:url(#Degradado_sin_nombre_43-17);}.cls-48{fill:url(#Degradado_sin_nombre_43-18);}.cls-49{fill:url(#Degradado_sin_nombre_43-19);}.cls-50{fill:url(#Degradado_sin_nombre_43-20);}.cls-51{fill:url(#Degradado_sin_nombre_43-21);}.cls-52{fill:url(#Degradado_sin_nombre_43-22);}.cls-53{fill:url(#Degradado_sin_nombre_43-23);}.cls-54{fill:url(#Degradado_sin_nombre_43-24);}.cls-55{fill:url(#Degradado_sin_nombre_43-25);}.cls-56{fill:url(#Degradado_sin_nombre_43-26);}.cls-57{fill:url(#Degradado_sin_nombre_43-27);}.cls-58{fill:url(#Degradado_sin_nombre_43-28);}</style><linearGradient id="Degradado_sin_nombre_10" x1="120.15" y1="44.2" x2="117.66" y2="77.46" gradientUnits="userSpaceOnUse"><stop offset="0" stop-color="#f18d7c"/><stop offset="1" stop-color="#ec6684"/></linearGradient><linearGradient id="Degradado_sin_nombre_10-2" x1="74.84" y1="40.81" x2="72.35" y2="74.06" xlink:href="#Degradado_sin_nombre_10"/><linearGradient id="Degradado_sin_nombre_10-3" x1="107.77" y1="43.28" x2="105.28" y2="76.53" xlink:href="#Degradado_sin_nombre_10"/><linearGradient id="Degradado_sin_nombre_12" x1="94.59" y1="124.52" x2="96.25" y2="74.08" gradientUnits="userSpaceOnUse"><stop offset="0" stop-color="#2fb9c9"/><stop offset="1" stop-color="#83c6a7"/></linearGradient><linearGradient id="Degradado_sin_nombre_43" x1="126.95" y1="187.66" x2="119.47" y2="143.59" gradientUnits="userSpaceOnUse"><stop offset="0" stop-color="#f8c27a"/><stop offset="1" stop-color="#f18555"/></linearGradient><linearGradient id="Degradado_sin_nombre_12-2" x1="71.91" y1="123.78" x2="73.57" y2="73.34" xlink:href="#Degradado_sin_nombre_12"/><linearGradient id="Degradado_sin_nombre_43-2" x1="68.31" y1="197.61" x2="60.83" y2="153.55" xlink:href="#Degradado_sin_nombre_43"/><linearGradient id="Degradado_sin_nombre_12-3" x1="116" y1="125.23" x2="117.66" y2="74.79" xlink:href="#Degradado_sin_nombre_12"/><linearGradient id="Degradado_sin_nombre_10-4" x1="67.48" y1="40.25" x2="64.99" y2="73.51" xlink:href="#Degradado_sin_nombre_10"/><linearGradient id="Degradado_sin_nombre_43-3" x1="78.83" y1="16.66" x2="80.07" y2="22.34" xlink:href="#Degradado_sin_nombre_43"/><linearGradient id="Degradado_sin_nombre_12-4" x1="125.9" y1="45.6" x2="123.91" y2="65.29" xlink:href="#Degradado_sin_nombre_12"/><linearGradient id="Degradado_sin_nombre_43-4" x1="10.11" y1="83.91" x2="10.91" y2="106.78" xlink:href="#Degradado_sin_nombre_43"/><linearGradient id="Degradado_sin_nombre_10-5" x1="119.32" y1="-11.41" x2="114.82" y2="53.28" xlink:href="#Degradado_sin_nombre_10"/><linearGradient id="Degradado_sin_nombre_10-6" x1="122.49" y1="-11.19" x2="117.99" y2="53.5" xlink:href="#Degradado_sin_nombre_10"/><linearGradient id="Degradado_sin_nombre_10-7" x1="125.64" y1="-10.97" x2="121.13" y2="53.72" xlink:href="#Degradado_sin_nombre_10"/><linearGradient id="Degradado_sin_nombre_10-8" x1="128.82" y1="-10.75" x2="124.31" y2="53.94" xlink:href="#Degradado_sin_nombre_10"/><linearGradient id="Degradado_sin_nombre_10-9" x1="132" y1="-10.53" x2="127.49" y2="54.16" xlink:href="#Degradado_sin_nombre_10"/><linearGradient id="Degradado_sin_nombre_10-10" x1="138.3" y1="-10.09" x2="133.79" y2="54.6" xlink:href="#Degradado_sin_nombre_10"/><linearGradient id="Degradado_sin_nombre_10-11" x1="135.16" y1="-10.31" x2="130.65" y2="54.38" xlink:href="#Degradado_sin_nombre_10"/><linearGradient id="Degradado_sin_nombre_43-5" x1="25.39" y1="4.65" x2="21.81" y2="42.63" xlink:href="#Degradado_sin_nombre_43"/><linearGradient id="Degradado_sin_nombre_43-6" x1="32.34" y1="5.31" x2="28.76" y2="43.28" xlink:href="#Degradado_sin_nombre_43"/><linearGradient id="Degradado_sin_nombre_43-7" x1="37.7" y1="1.3" x2="34.12" y2="39.28" xlink:href="#Degradado_sin_nombre_43"/><linearGradient id="Degradado_sin_nombre_43-8" x1="46.23" y1="6.62" x2="42.65" y2="44.59" xlink:href="#Degradado_sin_nombre_43"/><linearGradient id="Degradado_sin_nombre_43-9" x1="51.59" y1="2.61" x2="48.02" y2="40.59" xlink:href="#Degradado_sin_nombre_43"/><linearGradient id="Degradado_sin_nombre_43-10" x1="60.13" y1="7.93" x2="56.55" y2="45.9" xlink:href="#Degradado_sin_nombre_43"/><linearGradient id="Degradado_sin_nombre_43-11" x1="26.26" y1="4.74" x2="22.68" y2="42.71" xlink:href="#Degradado_sin_nombre_43"/><linearGradient id="Degradado_sin_nombre_43-12" x1="33.21" y1="5.39" x2="29.63" y2="43.36" xlink:href="#Degradado_sin_nombre_43"/><linearGradient id="Degradado_sin_nombre_43-13" x1="38.57" y1="1.39" x2="34.99" y2="39.36" xlink:href="#Degradado_sin_nombre_43"/><linearGradient id="Degradado_sin_nombre_43-14" x1="47.1" y1="6.7" x2="43.52" y2="44.67" xlink:href="#Degradado_sin_nombre_43"/><linearGradient id="Degradado_sin_nombre_43-15" x1="52.47" y1="2.7" x2="48.89" y2="40.67" xlink:href="#Degradado_sin_nombre_43"/><linearGradient id="Degradado_sin_nombre_43-16" x1="61" y1="8.01" x2="57.42" y2="45.98" xlink:href="#Degradado_sin_nombre_43"/><linearGradient id="Degradado_sin_nombre_43-17" x1="27.13" y1="4.82" x2="23.55" y2="42.79" xlink:href="#Degradado_sin_nombre_43"/><linearGradient id="Degradado_sin_nombre_43-18" x1="34.08" y1="5.47" x2="30.5" y2="43.45" xlink:href="#Degradado_sin_nombre_43"/><linearGradient id="Degradado_sin_nombre_43-19" x1="39.44" y1="1.47" x2="35.86" y2="39.44" xlink:href="#Degradado_sin_nombre_43"/><linearGradient id="Degradado_sin_nombre_43-20" x1="47.97" y1="6.78" x2="44.39" y2="44.76" xlink:href="#Degradado_sin_nombre_43"/><linearGradient id="Degradado_sin_nombre_43-21" x1="53.34" y1="2.78" x2="49.76" y2="40.75" xlink:href="#Degradado_sin_nombre_43"/><linearGradient id="Degradado_sin_nombre_43-22" x1="61.87" y1="8.09" x2="58.29" y2="46.07" xlink:href="#Degradado_sin_nombre_43"/><linearGradient id="Degradado_sin_nombre_43-23" x1="28" y1="4.9" x2="24.42" y2="42.87" xlink:href="#Degradado_sin_nombre_43"/><linearGradient id="Degradado_sin_nombre_43-24" x1="34.95" y1="5.55" x2="31.37" y2="43.53" xlink:href="#Degradado_sin_nombre_43"/><linearGradient id="Degradado_sin_nombre_43-25" x1="40.31" y1="1.55" x2="36.73" y2="39.53" xlink:href="#Degradado_sin_nombre_43"/><linearGradient id="Degradado_sin_nombre_43-26" x1="48.84" y1="6.86" x2="45.26" y2="44.84" xlink:href="#Degradado_sin_nombre_43"/><linearGradient id="Degradado_sin_nombre_43-27" x1="54.21" y1="2.86" x2="50.63" y2="40.84" xlink:href="#Degradado_sin_nombre_43"/><linearGradient id="Degradado_sin_nombre_43-28" x1="62.74" y1="8.17" x2="59.16" y2="46.15" xlink:href="#Degradado_sin_nombre_43"/></defs><title>perfil</title><path class="cls-1" d="M29.76,74.22s-3.18,2.34-9-1.27c-4.21-2.62-12.17-8.59-19.16-6.12,0,0,6.89-6.65,15.51-5.74s16,8.86,12.67,13.13" transform="translate(-1.58 -4.66)"/><path class="cls-2" d="M37.38,88.12h0a.21.21,0,0,1-.25-.13,57.78,57.78,0,0,0-4.7-10.27c-2.82-4.8-7.48-10.78-13.68-12a.2.2,0,1,1,.07-.39,16.49,16.49,0,0,1,8.13,4.58,35.69,35.69,0,0,1,5.84,7.63A57.24,57.24,0,0,1,37.5,87.87.2.2,0,0,1,37.38,88.12Z" transform="translate(-1.58 -4.66)"/><path class="cls-1" d="M33.4,66.09s3.28-2.19,1.86-8.91c-1-4.85-3.93-14.37.76-20.1,0,0-8.6,4.23-10.67,12.64s2.9,18.07,8,16.37" transform="translate(-1.58 -4.66)"/><path class="cls-2" d="M48.21,90.55a.19.19,0,0,1-.22-.06,130.85,130.85,0,0,1-9.64-13.14,85.16,85.16,0,0,1-6.62-12.24,32.21,32.21,0,0,1-3-12.31.2.2,0,0,1,.2-.2.19.19,0,0,1,.2.2c0,7.75,5.19,17.5,9.56,24.33a132.87,132.87,0,0,0,9.6,13.1.2.2,0,0,1,0,.28Z" transform="translate(-1.58 -4.66)"/><path class="cls-1" d="M40.86,66.84s3.86-.87,4.93-7.65c.78-4.9,1.47-14.83,7.89-18.5,0,0-9.53.87-14.47,8s-3.76,17.91,1.65,18.16" transform="translate(-1.58 -4.66)"/><path class="cls-2" d="M50.12,89.84a.2.2,0,0,1-.24-.09,86.15,86.15,0,0,1-6.36-13.16,55.21,55.21,0,0,1-3.22-12,24,24,0,0,1,1-11.78.2.2,0,0,1,.38.14c-2.79,7.21-.31,16.78,2.26,23.54a85.5,85.5,0,0,0,6.32,13.09.2.2,0,0,1-.07.28Z" transform="translate(-1.58 -4.66)"/><path class="cls-1" d="M50.37,73s4-.09,6.35-6.52C58.45,61.87,61.1,52.28,68.13,50c0,0-9.52-1-15.78,5s-7.24,16.8-2,18.13" transform="translate(-1.58 -4.66)"/><path class="cls-2" d="M52.45,89a.19.19,0,0,1-.25-.11,42.09,42.09,0,0,1-2.39-10,35.7,35.7,0,0,1,.08-9.54,25.63,25.63,0,0,1,3.67-10,.2.2,0,1,1,.33.22c-4.16,6.51-4.3,14.09-3.68,19.3a42.11,42.11,0,0,0,2.36,9.86.2.2,0,0,1-.11.26Z" transform="translate(-1.58 -4.66)"/><path class="cls-1" d="M123,113.16c9.11-25.68,10.14-46.2,1.72-42.36-6,2.71-6.18,34.54-6.15,42.27Z" transform="translate(-1.58 -4.66)"/><path class="cls-2" d="M121.21,113.13l5.08-36a.3.3,0,0,0-.24-.32.28.28,0,0,0-.32.24l-5.09,36.09Z" transform="translate(-1.58 -4.66)"/><path class="cls-1" d="M133.35,113.38c9.15-7.95,24.86-22.51,23.43-27.63-2.43-8.78-17.07,4.64-30.7,27.48Z" transform="translate(-1.58 -4.66)"/><path class="cls-2" d="M129.49,113.3,151.37,89a.28.28,0,1,0-.42-.38l-22.2,24.68Z" transform="translate(-1.58 -4.66)"/><path class="cls-1" d="M127.48,113.26C134.41,102,151.9,72.35,148.5,66c-4.1-7.59-17.85,15.13-25.88,47.11Z" transform="translate(-1.58 -4.66)"/><path class="cls-2" d="M124.37,113.19,144.15,71.6a.27.27,0,0,0-.13-.37.28.28,0,0,0-.38.13l-19.89,41.82Z" transform="translate(-1.58 -4.66)"/><path class="cls-3" d="M96.84,194c-28.95-1-58.89-5-74.39-58.31-4.61-15.85-1.61-27.86,3.45-36.91a54.48,54.48,0,0,1,4-6.18h0c.53-.71,1.07-1.4,1.62-2.06A42.12,42.12,0,0,1,78.65,77.85,184.91,184.91,0,0,1,111,93c21.67,13.28,26.75,28.43,33.83,54.4.61,2.23,1.22,4.73,1.68,7.39.25,1.42.45,2.88.59,4.37C148.64,175.75,142.24,195.63,96.84,194Z" transform="translate(-1.58 -4.66)"/><g class="cls-4"><path class="cls-5" d="M147.07,159.14a34.38,34.38,0,0,1-4.15,8.07c-5.48,7.84-16.88,17.32-40.09,17.93-1,0-2,0-3,0A80.62,80.62,0,0,1,76,181.92a58.24,58.24,0,0,1-20-10.53c-10-8-18.15-19.76-26.58-38.06a53.36,53.36,0,0,1-5.13-21.78A47.31,47.31,0,0,1,25.9,98.81a54.48,54.48,0,0,1,4-6.18c-.36.83-.71,1.7-1,2.6-3,8.32-5.12,21.55,2.15,37.34,14.8,32.12,32,51.81,71.73,50.77,22.47-.59,33.43-9.66,38.66-17.16a31.43,31.43,0,0,0,5-11.41C146.73,156.19,146.93,157.65,147.07,159.14Z" transform="translate(-1.58 -4.66)"/></g><path class="cls-6" d="M105.66,60.7S123.84,85.36,128,97.64s-5.91,21-5.91,21l-9.35,3.51S103.12,78.78,105.66,60.7Z" transform="translate(-1.58 -4.66)"/><path class="cls-7" d="M108.33,99.61a.4.4,0,0,1-.37-.23.42.42,0,0,1,.19-.56c.27-.13,6.65-3.12,11.95-2.74a.4.4,0,0,1,.38.44.41.41,0,0,1-.44.39c-5.09-.36-11.47,2.63-11.53,2.66A.39.39,0,0,1,108.33,99.61Z" transform="translate(-1.58 -4.66)"/><path class="cls-7" d="M114.2,97.56a.43.43,0,0,1-.19,0,.43.43,0,0,1-.18-.56A13.46,13.46,0,0,1,116.14,94a.42.42,0,0,1,.58.6,12.38,12.38,0,0,0-2.15,2.71A.41.41,0,0,1,114.2,97.56Z" transform="translate(-1.58 -4.66)"/><path class="cls-3" d="M104.06,129.77c-8,2.64-27.35,9.54-35.79,6.74a7.44,7.44,0,0,1-1-.4,5.33,5.33,0,0,1-2.18-1.84c-3.3-5-6.58-26.14-5.11-38.55.19-1.55.27-3.24.31-5,0-2.6,0-5.38-.16-8.19C59.72,72,58.06,64.71,62.56,62.15A52.61,52.61,0,0,1,75,57.27c2-.49,5.33-1.5,7.65-1.45l10,1.82s8.68,1.45,10.68,2.93,3,8,6.64,13.94,4.4,11.93,1,18.47c-3,5.69-2.48,3.53-2.87,12.87C107.62,117.28,119.57,124.63,104.06,129.77Z" transform="translate(-1.58 -4.66)"/><path class="cls-8" d="M77.38,76.18A62.88,62.88,0,0,1,102.16,76l.34,9.61s-15.28-1.7-24.91.75Z" transform="translate(-1.58 -4.66)"/><path class="cls-8" d="M89.89,68.07h-.45c-6-.31-11.41-5.56-11.64-5.79a.41.41,0,0,1,.57-.58c.06.05,5.47,5.26,11.11,5.55,5.41.29,6.06-5.08,6.09-5.3a.39.39,0,0,1,.45-.36.4.4,0,0,1,.36.44C96.37,62.09,95.66,68.07,89.89,68.07Z" transform="translate(-1.58 -4.66)"/><path class="cls-8" d="M73,116.16a.43.43,0,0,1-.11-.12.42.42,0,0,1,.14-.58,50,50,0,0,1,20-6.9,35.92,35.92,0,0,1,8.83-.09.41.41,0,0,1,.36.48.43.43,0,0,1-.48.36,36.34,36.34,0,0,0-8.64.1,49.14,49.14,0,0,0-19.66,6.78A.42.42,0,0,1,73,116.16Z" transform="translate(-1.58 -4.66)"/><path class="cls-9" d="M83.14,133.59a50.34,50.34,0,0,1-18-10.89l-1-1c-2.29-2.23-3.9-1.08-4.6-2.36-2.67-4.9-1.16-24.09,0-31.14s-3.71-20-1.09-24.58S70,57.45,70,57.45,68.76,56,71.18,54.26s8.86-1,8.86-1C80.35,83.76,84.67,112.1,83.14,133.59Z" transform="translate(-1.58 -4.66)"/><path class="cls-3" d="M76.11,124.85a.4.4,0,0,1-.4-.34c-3.25-21.16,0-61,0-61.35a.4.4,0,0,1,.43-.37.39.39,0,0,1,.36.43c0,.4-3.24,40.1,0,61.17a.41.41,0,0,1-.33.46Z" transform="translate(-1.58 -4.66)"/><path class="cls-7" d="M82.65,128a.4.4,0,0,1-.39-.33C78,103.39,77.66,61.46,77.66,61a.4.4,0,0,1,.4-.4h0a.39.39,0,0,1,.4.39c0,.42.34,42.29,4.58,66.53a.4.4,0,0,1-.32.46Z" transform="translate(-1.58 -4.66)"/><path class="cls-7" d="M75.59,60.8l-.11,0a13.53,13.53,0,0,1-5.52-3,.4.4,0,0,1,.56-.57h0A12.83,12.83,0,0,0,75.69,60a.4.4,0,0,1-.1.79Z" transform="translate(-1.58 -4.66)"/><path class="cls-10" d="M114.12,120.28a22,22,0,0,1-12,12.67c-1.18-23.27-3.85-49.84-7.29-78.11,0,0,3.62-.64,5.14,1.44a5.74,5.74,0,0,1,.79,2.4A18.65,18.65,0,0,1,104.6,60c2,.94,1.8,2.24,2.28,5.54s5.58,8.4,7.24,15.31S111.38,92.16,110,98,114.12,120.28,114.12,120.28Z" transform="translate(-1.58 -4.66)"/><path class="cls-7" d="M108.1,107.49a.42.42,0,0,1-.41-.36c-.57-3.79-.74-8.72,3-13.19s4.76-9.88,2.66-14.53a120.92,120.92,0,0,0-5.83-11.13.42.42,0,0,1,.72-.43c0,.06,3.33,5.57,5.87,11.21,2.23,5,1.22,10.58-2.78,15.41-3.49,4.22-3.32,8.92-2.78,12.54a.41.41,0,0,1-.35.47Z" transform="translate(-1.58 -4.66)"/><path class="cls-3" d="M106,123.88a.41.41,0,0,1-.4-.39,394.9,394.9,0,0,0-6.75-60.22.39.39,0,0,1,.31-.47.4.4,0,0,1,.47.31,395.06,395.06,0,0,1,6.77,60.36.4.4,0,0,1-.39.41Z" transform="translate(-1.58 -4.66)"/><path class="cls-7" d="M97.24,61.67a.4.4,0,0,1-.07-.79s2.58-.47,3.17-2.32a.4.4,0,0,1,.5-.26.41.41,0,0,1,.26.5c-.74,2.32-3.67,2.85-3.79,2.87Z" transform="translate(-1.58 -4.66)"/><path class="cls-7" d="M105,123.88a.39.39,0,0,1-.39-.35c-2.81-23.34-7.24-60.64-7.29-61a.41.41,0,0,1,.35-.45.4.4,0,0,1,.44.35c0,.38,4.48,37.68,7.29,61a.4.4,0,0,1-.35.45Z" transform="translate(-1.58 -4.66)"/><path class="cls-11" d="M81.47,140.64a22.28,22.28,0,0,0,6,2.68c16.28,5.18,31.21-3.18,31.21-3.18.9-4.46.34-9.52-1.16-11.38a1.65,1.65,0,0,0,.16-1.45l15-15.55c-8.52,7.06-19.06,9.37-27.26,14.33h0c-2.37,1.43-4.49,2.69-6,3.56C97,131,93.93,131.12,91,130.71a40.8,40.8,0,0,1-11.36-3.66S61,118.6,57.45,118.88C54.73,119.1,69.37,134.38,81.47,140.64Z" transform="translate(-1.58 -4.66)"/><path class="cls-12" d="M110.31,153.67s-4.81-1.38-6.28-2.94l-3.34,7.86,11.36,3.54S112.21,155.23,110.31,153.67Z" transform="translate(-1.58 -4.66)"/><path class="cls-13" d="M137.72,176.37,123,143.78a4.79,4.79,0,0,0-2,.39c-2.84,1-6.85,3.9-9.43,5.58-.3.19-.58.38-.84.53a11.64,11.64,0,0,1-1.09.61,1.82,1.82,0,0,0-1,2.85c4.72,1.84,1.55,7.76,4.12,9.23,0,0,1.1.63,4.59,2.17s7,5.25,10.27,8.29c4.2,3.92,6.84,4.39,8.35,4A2.8,2.8,0,0,0,137.72,176.37Z" transform="translate(-1.58 -4.66)"/><path class="cls-14" d="M137.72,176.37,123,143.78a4.79,4.79,0,0,0-2,.39l15,33.29A2.8,2.8,0,0,0,137.72,176.37Z" transform="translate(-1.58 -4.66)"/><path class="cls-14" d="M124.54,147.1l-.44-1a7.87,7.87,0,0,1-4.43,4.1,10.12,10.12,0,0,1-8.07-.49c-.3.19-.58.38-.84.53A10.94,10.94,0,0,0,120,151,8.68,8.68,0,0,0,124.54,147.1Z" transform="translate(-1.58 -4.66)"/><path class="cls-3" d="M119.09,163.72a.59.59,0,0,0-1.12.35l.41,2.26a.6.6,0,0,0,.69.48.59.59,0,0,0,.47-.69l-.41-2.26A.57.57,0,0,0,119.09,163.72Z" transform="translate(-1.58 -4.66)"/><path class="cls-3" d="M116.48,162.46a.58.58,0,0,0-.64-.33.59.59,0,0,0-.48.68l.42,2.26a.58.58,0,0,0,.68.48.61.61,0,0,0,.48-.69l-.42-2.26A.74.74,0,0,0,116.48,162.46Z" transform="translate(-1.58 -4.66)"/><path class="cls-3" d="M121.19,165.22a.59.59,0,0,0-1.12.35l.41,2.27a.59.59,0,0,0,.69.47.58.58,0,0,0,.47-.68l-.41-2.27A.74.74,0,0,0,121.19,165.22Z" transform="translate(-1.58 -4.66)"/><path class="cls-3" d="M123.24,166.75a.58.58,0,0,0-.64-.34.59.59,0,0,0-.47.69l.41,2.26a.59.59,0,0,0,1.16-.21l-.41-2.26A.58.58,0,0,0,123.24,166.75Z" transform="translate(-1.58 -4.66)"/><path class="cls-3" d="M125.3,168.49a.59.59,0,0,0-.65-.33.58.58,0,0,0-.47.68l.41,2.27a.59.59,0,0,0,.69.47.58.58,0,0,0,.47-.68l-.41-2.27A.74.74,0,0,0,125.3,168.49Z" transform="translate(-1.58 -4.66)"/><path class="cls-3" d="M127.28,170.5a.59.59,0,0,0-.64-.34.6.6,0,0,0-.48.69l.41,2.26a.59.59,0,0,0,.69.47.58.58,0,0,0,.47-.68l-.41-2.27A.65.65,0,0,0,127.28,170.5Z" transform="translate(-1.58 -4.66)"/><path class="cls-15" d="M57.45,118.88s-11.81-6.37-18.65-1.45c-12.51,9,8.72,26.34,33,34.8S104,159.54,104,159.54s5.28-1.45,3.41-10c0,0-14-5.32-21.28-10.9S73.84,126.24,57.45,118.88Z" transform="translate(-1.58 -4.66)"/><path class="cls-16" d="M106.41,152c-5.09-1.22-15.47-6-27.75-12.73-9.19-5-19.79-11.49-21.35-13.73-.84-1.21-1.05-2.2-.63-2.94.64-1.11,2.46-1.22,3.29-1.21a.36.36,0,0,1,.36.39h0a.35.35,0,0,1-.37.34c-.81,0-2.23.14-2.64.85s.14,1.49.6,2.15c1.25,1.8,10.12,7.48,21.09,13.51,9.45,5.18,21.65,11.23,27.57,12.65Z" transform="translate(-1.58 -4.66)"/><path class="cls-16" d="M105.45,148.4c-.57,4.49-1.73,8.58-4.27,11.71,0,0,2.17,1.57,4.16.44,1.51-.85,4.44-7.87,3.32-11.62C107.39,148.24,106.3,148,105.45,148.4Z" transform="translate(-1.58 -4.66)"/><path class="cls-12" d="M74.77,153.55s4.7-1.7,6.07-3.35l3.85,7.61-11.1,4.3S73,155.23,74.77,153.55Z" transform="translate(-1.58 -4.66)"/><path class="cls-17" d="M48.93,178l12.48-33.5a5,5,0,0,1,2,.25c2.92.85,7.1,3.43,9.79,4.94l.87.48a11.24,11.24,0,0,0,1.13.53,1.82,1.82,0,0,1,1.16,2.78c-4.58,2.15-1,7.85-3.5,9.48,0,0-1,.71-4.43,2.48s-6.65,5.7-9.7,8.95c-3.92,4.2-6.53,4.84-8.06,4.58A2.79,2.79,0,0,1,48.93,178Z" transform="translate(-1.58 -4.66)"/><path class="cls-14" d="M48.93,178l12.48-33.5a5,5,0,0,1,2,.25L50.69,179A2.79,2.79,0,0,1,48.93,178Z" transform="translate(-1.58 -4.66)"/><path class="cls-14" d="M60.14,148l.37-1a7.84,7.84,0,0,0,4.69,3.8,10.08,10.08,0,0,0,8-1l.87.48a11,11,0,0,1-9.15,1.36A8.66,8.66,0,0,1,60.14,148Z" transform="translate(-1.58 -4.66)"/><path class="cls-3" d="M66.68,164.16a.6.6,0,0,1,.62-.38.6.6,0,0,1,.52.66l-.26,2.28a.59.59,0,1,1-1.17-.13l.26-2.29A.7.7,0,0,1,66.68,164.16Z" transform="translate(-1.58 -4.66)"/><path class="cls-3" d="M69.2,162.73a.58.58,0,0,1,.62-.38.6.6,0,0,1,.52.65l-.26,2.29a.6.6,0,0,1-.66.52.58.58,0,0,1-.51-.65l.26-2.29A.35.35,0,0,1,69.2,162.73Z" transform="translate(-1.58 -4.66)"/><path class="cls-3" d="M64.69,165.8a.59.59,0,0,1,1.13.28l-.26,2.28a.57.57,0,0,1-.65.52.6.6,0,0,1-.52-.65l.26-2.29A.74.74,0,0,1,64.69,165.8Z" transform="translate(-1.58 -4.66)"/><path class="cls-3" d="M62.74,167.46a.58.58,0,0,1,.62-.38.6.6,0,0,1,.52.65L63.62,170a.59.59,0,0,1-1.18-.13l.26-2.29A.57.57,0,0,1,62.74,167.46Z" transform="translate(-1.58 -4.66)"/><path class="cls-3" d="M60.81,169.34a.58.58,0,0,1,1.13.27l-.26,2.29a.59.59,0,0,1-.65.52.6.6,0,0,1-.52-.65l.26-2.29A.57.57,0,0,1,60.81,169.34Z" transform="translate(-1.58 -4.66)"/><path class="cls-3" d="M59,171.47a.59.59,0,0,1,1.14.27L59.84,174a.59.59,0,1,1-1.17-.13l.26-2.29A.7.7,0,0,1,59,171.47Z" transform="translate(-1.58 -4.66)"/><path class="cls-18" d="M127.85,113.7s11.17-7.43,18.43-3.15c13.28,7.82-6.26,27-29.66,37.68s-31.35,10.22-31.35,10.22-5.39-1-4.31-9.64c0,0,13.45-6.58,20.19-12.8S112.2,122.54,127.85,113.7Z" transform="translate(-1.58 -4.66)"/><path class="cls-16" d="M107.41,152.23c-1.29.43-2.6.85-4,1.28-5.24,1.65-11.21,3.37-16.62,4.7l0,.78c4.88-1.2,10.62-2.81,16.86-4.78,1.22-.38,2.46-.78,3.71-1.19Z" transform="translate(-1.58 -4.66)"/><path class="cls-16" d="M82.13,151.2c5-1.69,14.85-7.38,26.47-15.23,8.69-5.86,18.65-13.26,20-15.63.73-1.28.85-2.28.36-3-.73-1-2.55-1-3.38-.91a.38.38,0,0,0-.33.43h0a.37.37,0,0,0,.4.3c.81-.08,2.24-.07,2.71.6s0,1.5-.4,2.2c-1.08,1.91-9.39,8.38-19.76,15.38-8.93,6-20.53,13.18-26.3,15.14Z" transform="translate(-1.58 -4.66)"/><path class="cls-16" d="M82.75,147.5c1,4.43,2.52,8.39,5.33,11.27,0,0-2,1.76-4.1.82-1.58-.71-5.14-7.43-4.37-11.26C80.81,147.52,81.87,147.18,82.75,147.5Z" transform="translate(-1.58 -4.66)"/><path class="cls-19" d="M81.24,112.06l-.9,12.82s-15.24-2.18-22.73-4.09a30.67,30.67,0,0,1-6.86-2.46c-4.13-2.19-7.56-6-7.31-13.47a34.09,34.09,0,0,1,1.48-8.37A173.05,173.05,0,0,1,59.49,62.24c11.74,5,10.75,13.39,10.75,13.39-3.35,8.93-10.75,28-10.75,28C63.79,108.84,81.24,112.06,81.24,112.06Z" transform="translate(-1.58 -4.66)"/><path class="cls-7" d="M59.49,104a.39.39,0,0,1-.21-.06,24.52,24.52,0,0,0-4.86-1.64.39.39,0,0,1-.3-.48.41.41,0,0,1,.48-.3,32.87,32.87,0,0,1,4.23,1.31,7,7,0,0,0-1.17-1.72.4.4,0,0,1,.6-.52,6.13,6.13,0,0,1,1.62,3,.39.39,0,0,1-.17.4A.43.43,0,0,1,59.49,104Z" transform="translate(-1.58 -4.66)"/><path class="cls-7" d="M50.75,118.33c-4.13-2.19-7.56-6-7.31-13.47C46.72,106.57,52.42,110.72,50.75,118.33Z" transform="translate(-1.58 -4.66)"/><path class="cls-7" d="M71.65,110.09h-.1a31.5,31.5,0,0,1-12.33-6.2.41.41,0,0,1-.09-.48c5.39-10.58,8.8-19,10.73-26.46a.39.39,0,0,1,.48-.28.39.39,0,0,1,.29.48C68.7,84.6,65.32,93,60,103.49a31.88,31.88,0,0,0,11.76,5.82.39.39,0,0,1,.29.48A.41.41,0,0,1,71.65,110.09Z" transform="translate(-1.58 -4.66)"/><path class="cls-7" d="M68.63,82.88a.38.38,0,0,1-.25-.09.4.4,0,0,1-.06-.56l2.8-3.51a.4.4,0,1,1,.62.49l-2.8,3.52A.39.39,0,0,1,68.63,82.88Z" transform="translate(-1.58 -4.66)"/><path class="cls-20" d="M83.68,19.12s.06-11-6.88-11.68S70.74,15,70.74,15s-3.87-2.57-3.13,2.66,10.56,5.16,10.56,5.16Z" transform="translate(-1.58 -4.66)"/><path class="cls-21" d="M83.41,16.62s-5.94,1.11-8.17,6a4.44,4.44,0,0,0,2.7,1.55s1.09-3.31,5.74-5.05C83.68,19.12,84.43,17.55,83.41,16.62Z" transform="translate(-1.58 -4.66)"/><path class="cls-20" d="M102.29,39.73s3.41-.72,4.38-5.53c1.59-7.83-.79-15.27-10.53-16.68-12.76-1.85-17.38,2.21-19.94,7.14S72.05,38,75.38,41.2a34.67,34.67,0,0,0,8.76,5.57Z" transform="translate(-1.58 -4.66)"/><path class="cls-22" d="M102.65,37.89a2.32,2.32,0,0,1,1.76,2.32c.17,2.06-1.1,5.4-3.13,4.84S102.65,37.89,102.65,37.89Z" transform="translate(-1.58 -4.66)"/><path class="cls-3" d="M96.23,45.85a4.16,4.16,0,1,1,3.06,5A4.16,4.16,0,0,1,96.23,45.85ZM97,46a3.41,3.41,0,1,0,4.12-2.51A3.41,3.41,0,0,0,97,46Z" transform="translate(-1.58 -4.66)"/><line class="cls-12" x1="94.32" y1="48.7" x2="94.32" y2="48.71"/><path class="cls-12" d="M80,53.26s1.73,7,7.49,8.81c5.57,1.81,7.64-2.26,7.64-2.26h0c0-.42,0-.84,0-1.28a33.54,33.54,0,0,1,.5-4c.06-.36.13-.72.2-1.1v0c-5.17-1.61-9.31-4.24-12-8.33l-.75-.52-.51-.36-.12.3,0,1C82.73,50.06,82.16,47.9,80,53.26Z" transform="translate(-1.58 -4.66)"/><path class="cls-22" d="M87.28,49.33c.94,2.59,3.21,7.21,7.92,9.2a33.54,33.54,0,0,1,.5-4c.06-.36.13-.72.2-1.1h-.32C92.7,53.4,89.69,51.71,87.28,49.33Z" transform="translate(-1.58 -4.66)"/><path class="cls-12" d="M76.79,36.13a6.63,6.63,0,0,0,5.26,7.23h0l.08,0c0,.17.08.34.13.51a1.55,1.55,0,0,1,.07.23v0C84,49.27,90.52,53,94.22,53.62a8.78,8.78,0,0,0,2.55,0c4-.33,5.49-5.56,5.42-9.7a15.06,15.06,0,0,0-.13-1.72v-.12s2.08-5.51,2.72-8c1.24-4.73-.87-10-11.29-12.35s-13.82,3.84-15,7.21c-.2.56-.54,4,0,4.66A2.83,2.83,0,0,0,76.79,36.13Z" transform="translate(-1.58 -4.66)"/><path class="cls-22" d="M82.05,43.36h0l.08,0c0,.17.08.34.13.51a1.55,1.55,0,0,1,.07.23v0a3.43,3.43,0,0,0,1.51-.38,2.51,2.51,0,0,0,.86-.72.37.37,0,0,0-.06-.54.38.38,0,0,0-.54.06,2.14,2.14,0,0,1-1,.68,3.11,3.11,0,0,1-.7.12Z" transform="translate(-1.58 -4.66)"/><path class="cls-3" d="M78.94,41.78l.6.56a3.37,3.37,0,0,0-2.2,2.7,3.41,3.41,0,1,0,4.15-2.82.84.84,0,0,1-.38-.82l.2,0a4.19,4.19,0,1,1-2.37.36Z" transform="translate(-1.58 -4.66)"/><path class="cls-3" d="M93.82,43.93S93.7,47,96.29,47.44a2.69,2.69,0,0,0,3.11-2.13Z" transform="translate(-1.58 -4.66)"/><path class="cls-22" d="M95.66,48.56a1.43,1.43,0,0,1-.75-.55.24.24,0,0,1,.08-.33.23.23,0,0,1,.32.08,1,1,0,0,0,1,.37.23.23,0,0,1,.28.18.25.25,0,0,1-.19.28A1.62,1.62,0,0,1,95.66,48.56Z" transform="translate(-1.58 -4.66)"/><path class="cls-20" d="M92,28.48a5.23,5.23,0,0,1-2.78,4.4h0c-1.6.8-2.86,1.58-2.41,3.3.59,2.27-.12,3.68-1.42,3.65-2.32-.07-2.17-5.3-6.93-6.17,0,0-1.68-.59-1.11-3.59S84.15,19.17,92,20.69,106.26,27,105.8,32.57s-1.5,4.32-1.5,4.32a30.13,30.13,0,0,0,0-4.86C104.08,28,91.47,25.8,92,28.48Z" transform="translate(-1.58 -4.66)"/><g class="cls-4"><path class="cls-22" d="M100.14,42.82c0,.42.83.88,2,1.11a15.06,15.06,0,0,0-.13-1.72C101,42.2,100.18,42.44,100.14,42.82Z" transform="translate(-1.58 -4.66)"/></g><path class="cls-22" d="M97.44,43.54a.28.28,0,0,0,.18,0l1.56-.65a.31.31,0,0,0,.19-.26.3.3,0,0,0-.12-.29,4.72,4.72,0,0,1-1.73-3.55.32.32,0,1,0-.64,0,5.37,5.37,0,0,0,1.57,3.65l-1.08.45a.32.32,0,0,0-.17.43A.31.31,0,0,0,97.44,43.54Z" transform="translate(-1.58 -4.66)"/><path class="cls-20" d="M95.58,34.2a.79.79,0,0,0,.73-1.36,2.32,2.32,0,0,0-1.54-.46,5.71,5.71,0,0,0-4.44,2.48A14.62,14.62,0,0,1,94.71,34,4.18,4.18,0,0,1,95.58,34.2Z" transform="translate(-1.58 -4.66)"/><path class="cls-20" d="M100.08,35.12a.79.79,0,0,1-.22-1.53,2.31,2.31,0,0,1,1.6.09c2.76,1.09,2.59,3.17,2.59,3.17a10.52,10.52,0,0,0-3.09-1.6A4.68,4.68,0,0,0,100.08,35.12Z" transform="translate(-1.58 -4.66)"/><g class="cls-4"><path class="cls-22" d="M93.58,42c-.06.48-1.3.74-2.78.56s-2.64-.7-2.58-1.18,1.3-.73,2.78-.56S93.64,41.52,93.58,42Z" transform="translate(-1.58 -4.66)"/></g><path class="cls-22" d="M82.7,41.19a.37.37,0,0,1-.28-.35c-.15-2.73-3.18-4.31-3.21-4.33a.39.39,0,1,1,.35-.69c.14.07,3.45,1.8,3.63,5a.38.38,0,0,1-.36.41A.27.27,0,0,1,82.7,41.19Z" transform="translate(-1.58 -4.66)"/><path class="cls-22" d="M79.56,39.26l-.13-.07a.39.39,0,0,1-.05-.55,2.64,2.64,0,0,1,2.46-.83.4.4,0,0,1,.32.45.39.39,0,0,1-.45.31,1.86,1.86,0,0,0-1.73.56A.4.4,0,0,1,79.56,39.26Z" transform="translate(-1.58 -4.66)"/><path class="cls-23" d="M94.54,38.27c-.12.72-.52,1.26-.89,1.19s-.58-.69-.46-1.41.52-1.26.89-1.19S94.66,37.55,94.54,38.27Z" transform="translate(-1.58 -4.66)"/><path class="cls-23" d="M92.31,36.67a.36.36,0,0,1-.07-.1.21.21,0,0,1,.12-.25,3.1,3.1,0,0,1,3.28.72.19.19,0,0,1-.29.25,2.75,2.75,0,0,0-2.86-.6A.22.22,0,0,1,92.31,36.67Z" transform="translate(-1.58 -4.66)"/><path class="cls-23" d="M101.13,39.36c-.12.72-.52,1.25-.89,1.19s-.58-.69-.46-1.41.52-1.26.89-1.2S101.25,38.64,101.13,39.36Z" transform="translate(-1.58 -4.66)"/><path class="cls-23" d="M99.11,37.71a.17.17,0,0,1-.07-.1.19.19,0,0,1,.12-.24,3.09,3.09,0,0,1,3.25.87.19.19,0,0,1-.3.24,2.75,2.75,0,0,0-2.83-.74A.2.2,0,0,1,99.11,37.71Z" transform="translate(-1.58 -4.66)"/><path class="cls-3" d="M69.58,134l-3.4-6.45A2.41,2.41,0,0,1,68.34,124l53.35.57-1.58,8.26Z" transform="translate(-1.58 -4.66)"/><path class="cls-3" d="M119.19,132.19H71.45a1.83,1.83,0,0,1-1.86-2.08l3.26-29.5a2.38,2.38,0,0,1,2.31-2.09h47.75a1.83,1.83,0,0,1,1.85,2.09l-3.25,29.5A2.39,2.39,0,0,1,119.19,132.19Z" transform="translate(-1.58 -4.66)"/><path class="cls-24" d="M70.74,133.46h-.06a.41.41,0,0,1-.35-.45l4-31.59a.4.4,0,1,1,.8.1l-4,31.59A.38.38,0,0,1,70.74,133.46Z" transform="translate(-1.58 -4.66)"/><path class="cls-25" d="M119.42,134.76H71a1.75,1.75,0,0,1-1.74-2l.46-3.37h52l-.53,3.84A1.76,1.76,0,0,1,119.42,134.76Z" transform="translate(-1.58 -4.66)"/><path class="cls-24" d="M94,115.88a4.2,4.2,0,0,0,3.9,4.56,4.33,4.33,0,0,0,4.56-4,4.2,4.2,0,0,0-3.9-4.56A4.34,4.34,0,0,0,94,115.88Z" transform="translate(-1.58 -4.66)"/><path class="cls-26" d="M125,57.91a3.09,3.09,0,1,1,3.08-3.09A3.09,3.09,0,0,1,125,57.91Zm0-5.38a2.29,2.29,0,1,0,2.29,2.29A2.29,2.29,0,0,0,125,52.53Z" transform="translate(-1.58 -4.66)"/><path class="cls-27" d="M14.67,100.11h-8a.39.39,0,0,1-.34-.19.41.41,0,0,1,0-.4l4-7.35a.41.41,0,0,1,.7,0l4,7.35a.41.41,0,0,1,0,.4A.39.39,0,0,1,14.67,100.11Zm-7.35-.79H14l-3.34-6.13Z" transform="translate(-1.58 -4.66)"/><path class="cls-28" d="M122.39,9.78l-9.76,9.76a12.45,12.45,0,0,1,.63-1.67l7.46-7.46A12.45,12.45,0,0,1,122.39,9.78Z" transform="translate(-1.58 -4.66)"/><path class="cls-29" d="M129,9.28,112.14,26.14a9.24,9.24,0,0,1-.11-.92l16-16C128.38,9.2,128.69,9.24,129,9.28Z" transform="translate(-1.58 -4.66)"/><path class="cls-30" d="M133.6,10.79l-20,20c-.12-.23-.23-.46-.34-.69l19.61-19.61C133.14,10.55,133.38,10.67,133.6,10.79Z" transform="translate(-1.58 -4.66)"/><path class="cls-31" d="M137.15,13.36,116.21,34.29c-.17-.17-.34-.35-.5-.53l20.9-20.9Z" transform="translate(-1.58 -4.66)"/><path class="cls-32" d="M139.77,16.85,119.7,36.92c-.23-.12-.44-.24-.66-.38L139.4,16.19C139.53,16.4,139.65,16.62,139.77,16.85Z" transform="translate(-1.58 -4.66)"/><path class="cls-33" d="M141.35,26.46a12.12,12.12,0,0,1-.29,1.33L130.64,38.21c-.44.12-.88.21-1.33.29Z" transform="translate(-1.58 -4.66)"/><path class="cls-34" d="M141.35,21.38,124.23,38.5l-.86-.17,17.81-17.81C141.25,20.8,141.3,21.09,141.35,21.38Z" transform="translate(-1.58 -4.66)"/><path class="cls-28" d="M122.39,9.78l-9.76,9.76a12.45,12.45,0,0,1,.63-1.67l7.46-7.46A12.45,12.45,0,0,1,122.39,9.78Z" transform="translate(-1.58 -4.66)"/><path class="cls-29" d="M129,9.28,112.14,26.14a9.24,9.24,0,0,1-.11-.92l16-16C128.38,9.2,128.69,9.24,129,9.28Z" transform="translate(-1.58 -4.66)"/><path class="cls-30" d="M133.6,10.79l-20,20c-.12-.23-.23-.46-.34-.69l19.61-19.61C133.14,10.55,133.38,10.67,133.6,10.79Z" transform="translate(-1.58 -4.66)"/><path class="cls-31" d="M137.15,13.36,116.21,34.29c-.17-.17-.34-.35-.5-.53l20.9-20.9Z" transform="translate(-1.58 -4.66)"/><path class="cls-32" d="M139.77,16.85,119.7,36.92c-.23-.12-.44-.24-.66-.38L139.4,16.19C139.53,16.4,139.65,16.62,139.77,16.85Z" transform="translate(-1.58 -4.66)"/><path class="cls-34" d="M141.35,21.38,124.23,38.5l-.86-.17,17.81-17.81C141.25,20.8,141.3,21.09,141.35,21.38Z" transform="translate(-1.58 -4.66)"/><path class="cls-33" d="M141.35,26.46a12.12,12.12,0,0,1-.29,1.33L130.64,38.21c-.44.12-.88.21-1.33.29Z" transform="translate(-1.58 -4.66)"/><path class="cls-35" d="M26.18,5.53a.87.87,0,1,1-.87-.87A.87.87,0,0,1,26.18,5.53Z" transform="translate(-1.58 -4.66)"/><path class="cls-36" d="M33.18,5.53a.87.87,0,1,1-.86-.87A.86.86,0,0,1,33.18,5.53Z" transform="translate(-1.58 -4.66)"/><circle class="cls-37" cx="37.74" cy="0.87" r="0.87"/><path class="cls-38" d="M47.2,5.53a.87.87,0,1,1-.87-.87A.87.87,0,0,1,47.2,5.53Z" transform="translate(-1.58 -4.66)"/><circle class="cls-39" cx="51.76" cy="0.87" r="0.87"/><path class="cls-40" d="M61.22,5.53a.87.87,0,1,1-.87-.87A.87.87,0,0,1,61.22,5.53Z" transform="translate(-1.58 -4.66)"/><path class="cls-41" d="M26.18,14.85a.87.87,0,1,1-.87-.87A.87.87,0,0,1,26.18,14.85Z" transform="translate(-1.58 -4.66)"/><path class="cls-42" d="M33.18,14.85a.87.87,0,1,1-.86-.87A.86.86,0,0,1,33.18,14.85Z" transform="translate(-1.58 -4.66)"/><circle class="cls-43" cx="37.74" cy="10.19" r="0.87"/><path class="cls-44" d="M47.2,14.85a.87.87,0,1,1-.87-.87A.87.87,0,0,1,47.2,14.85Z" transform="translate(-1.58 -4.66)"/><circle class="cls-45" cx="51.76" cy="10.19" r="0.87"/><path class="cls-46" d="M61.22,14.85a.87.87,0,1,1-.87-.87A.87.87,0,0,1,61.22,14.85Z" transform="translate(-1.58 -4.66)"/><path class="cls-47" d="M26.18,24.17a.87.87,0,1,1-.87-.87A.87.87,0,0,1,26.18,24.17Z" transform="translate(-1.58 -4.66)"/><path class="cls-48" d="M33.18,24.17a.87.87,0,1,1-.86-.87A.86.86,0,0,1,33.18,24.17Z" transform="translate(-1.58 -4.66)"/><circle class="cls-49" cx="37.74" cy="19.51" r="0.87"/><path class="cls-50" d="M47.2,24.17a.87.87,0,1,1-.87-.87A.87.87,0,0,1,47.2,24.17Z" transform="translate(-1.58 -4.66)"/><circle class="cls-51" cx="51.76" cy="19.51" r="0.87"/><path class="cls-52" d="M61.22,24.17a.87.87,0,1,1-.87-.87A.87.87,0,0,1,61.22,24.17Z" transform="translate(-1.58 -4.66)"/><path class="cls-53" d="M26.18,33.49a.87.87,0,1,1-.87-.87A.87.87,0,0,1,26.18,33.49Z" transform="translate(-1.58 -4.66)"/><path class="cls-54" d="M33.18,33.49a.87.87,0,1,1-.86-.87A.86.86,0,0,1,33.18,33.49Z" transform="translate(-1.58 -4.66)"/><circle class="cls-55" cx="37.74" cy="28.83" r="0.87"/><path class="cls-56" d="M47.2,33.49a.87.87,0,1,1-.87-.87A.87.87,0,0,1,47.2,33.49Z" transform="translate(-1.58 -4.66)"/><circle class="cls-57" cx="51.76" cy="28.83" r="0.87"/><path class="cls-58" d="M61.22,33.49a.87.87,0,1,1-.87-.87A.87.87,0,0,1,61.22,33.49Z" transform="translate(-1.58 -4.66)"/></svg>